<?xml version="1.0" encoding="UTF-8" standalone="no"?>
<svg
   xmlns:dc="http://purl.org/dc/elements/1.1/"
   xmlns:cc="http://creativecommons.org/ns#"
   xmlns:rdf="http://www.w3.org/1999/02/22-rdf-syntax-ns#"
   xmlns:svg="http://www.w3.org/2000/svg"
   xmlns="http://www.w3.org/2000/svg"
   xmlns:xlink="http://www.w3.org/1999/xlink"
   xmlns:sodipodi="http://sodipodi.sourceforge.net/DTD/sodipodi-0.dtd"
   xmlns:inkscape="http://www.inkscape.org/namespaces/inkscape"
   width="138.17546"
   height="56.008923"
   viewBox="0 0 138.17546 56.008923"
   id="svg2"
   version="1.1"
   inkscape:version="1.0 (4035a4fb49, 2020-05-01)"
   sodipodi:docname="background.svg">
  <defs
     id="defs4">
    <style
       type="text/css"
       id="current-color-scheme" />
    <radialGradient
       id="radialGradient4263"
       cx="984"
       cy="905.362"
       r="8.5"
       fx="984"
       fy="905.362"
       gradientTransform="matrix(-1.411767,-9.899721e-6,9.8996845e-6,-1.4117618,1470.1698,2225.5267)"
       gradientUnits="userSpaceOnUse"
       xlink:href="#linearGradient4465" />
    <linearGradient
       id="linearGradient4465">
      <stop
         id="stop4467"
         offset="0"
         style="stop-color:#000000;stop-opacity:0.50980395" />
      <stop
         id="stop4469"
         offset="1"
         style="stop-color:#000000;stop-opacity:0" />
    </linearGradient>
    <radialGradient
       id="radialGradient4255"
       cx="982.909"
       cy="906.453"
       r="8.5"
       fx="982.909"
       fy="906.453"
       gradientTransform="matrix(1.4117577,5.5406049e-6,-5.5406032e-6,1.4117573,-1256.6245,-382.33621)"
       gradientUnits="userSpaceOnUse"
       xlink:href="#linearGradient4465" />
    <linearGradient
       id="linearGradient4259"
       x1="83.599998"
       x2="83.599998"
       y1="-969.362"
       y2="-957.362"
       gradientTransform="matrix(0.71428571,0,0,1,-317.71429,1250.3622)"
       gradientUnits="userSpaceOnUse"
       xlink:href="#linearGradient4465" />
    <linearGradient
       id="linearGradient4452"
       x1="-260"
       x2="-260"
       y1="281"
       y2="293"
       gradientUnits="userSpaceOnUse"
       xlink:href="#linearGradient4465" />
    <radialGradient
       id="radialGradient3382"
       cx="984"
       cy="905.362"
       r="8.5"
       fx="984"
       fy="905.362"
       gradientTransform="matrix(7.8257357e-6,1.411771,-1.4117668,7.8257123e-6,1409.1525,-441.82871)"
       gradientUnits="userSpaceOnUse"
       xlink:href="#linearGradient4465" />
    <radialGradient
       id="radialGradient4275"
       cx="984"
       cy="905.362"
       r="8.5"
       fx="984"
       fy="905.362"
       gradientTransform="matrix(-1.6187099e-5,-1.4117565,1.4117775,-1.618734e-5,-1197.1539,2286.5442)"
       gradientUnits="userSpaceOnUse"
       xlink:href="#linearGradient4465" />
  </defs>
  <sodipodi:namedview
     id="base"
     pagecolor="#ffffff"
     bordercolor="#000000"
     borderopacity="1"
     inkscape:pageopacity="1"
     inkscape:pageshadow="2"
     inkscape:zoom="6.5397161"
     inkscape:cx="39.380509"
     inkscape:cy="12.086298"
     inkscape:document-units="px"
     inkscape:current-layer="layer1"
     showgrid="false"
     inkscape:showpageshadow="false"
     borderlayer="true"
     units="px"
     inkscape:window-width="2560"
     inkscape:window-height="1379"
     inkscape:window-x="2560"
     inkscape:window-y="32"
     inkscape:window-maximized="1"
     showguides="false"
     fit-margin-top="0"
     fit-margin-left="0"
     fit-margin-right="0"
     fit-margin-bottom="0"
     inkscape:document-rotation="0">
    <inkscape:grid
       type="xygrid"
       id="grid3336"
       empspacing="2"
       originx="-0.18899995"
       originy="-91.932465"
       visible="true"
       enabled="true"
       snapvisiblegridlinesonly="true" />
  </sodipodi:namedview>
  <metadata
     id="metadata7">
    <rdf:RDF>
      <cc:Work
         rdf:about="">
        <dc:format>image/svg+xml</dc:format>
        <dc:type
           rdf:resource="http://purl.org/dc/dcmitype/StillImage" />
        <dc:title></dc:title>
      </cc:Work>
    </rdf:RDF>
  </metadata>
  <g
     inkscape:label="Layer 1"
     inkscape:groupmode="layer"
     id="layer1"
     transform="translate(-0.18899995,-904.42078)">
    <g
       id="top"
       inkscape:label="#g950"
       style="fill:#000000">
      <rect
         y="-51"
         x="-916.36218"
         height="32"
         width="6"
         id="rect4152"
         style="color:#eff0f1;opacity:0.85;fill:#001621;fill-opacity:1;stroke:none"
         transform="matrix(0,-1,-1,0,0,0)"
         class="ColorScheme-Background" />
    </g>
    <g
       id="topleft"
       inkscape:label="#g960"
       style="fill:#000000">
      <path
         style="color:#eff0f1;opacity:0.85;fill:#001621;fill-opacity:1"
         d="m 14,910.36218 c -0.553986,0 -1,0.44601 -1,1 v 4 1 h 4 1 1 v -1 -4 -1 h -1 -1 z"
         id="rect4159"
         inkscape:connector-curvature="0"
         class="ColorScheme-Background" />
    </g>
    <g
       id="topright"
       inkscape:label="#g947"
       style="fill:#000000">
      <path
         style="color:#eff0f1;opacity:0.85;fill:#001621;fill-opacity:1"
         d="m 51,910.36218 v 1 4 1 h 1 1 3 1 v -1 -4 c 0,-0.55399 -0.446014,-1 -1,-1 h -3 -1 z"
         id="rect4177"
         inkscape:connector-curvature="0"
         class="ColorScheme-Background" />
    </g>
    <g
       id="bottom"
       inkscape:label="#g941"
       style="fill:#000000">
      <g
         id="g937"
         style="fill:#000000">
        <rect
           class="ColorScheme-Background"
           y="-50.999985"
           x="948.36218"
           height="32"
           width="6"
           id="rect4148"
           style="color:#eff0f1;opacity:0.85;fill:#001621;fill-opacity:1;stroke:none"
           transform="rotate(90)" />
      </g>
    </g>
    <g
       id="bottomleft"
       inkscape:label="#g934"
       style="fill:#000000">
      <path
         inkscape:connector-curvature="0"
         style="color:#eff0f1;opacity:0.85;fill:#001621;fill-opacity:1"
         d="m 19,954.36216 v -1 -4 -1 h -1 -1 -3 -1 v 1 4 c 0,0.55399 0.446014,1 1,1 h 3 1 z"
         id="path5048"
         class="ColorScheme-Background" />
    </g>
    <g
       id="bottomright"
       inkscape:label="#g966"
       style="fill:#000000">
      <path
         id="rect4177-6"
         d="m 51,954.36218 v -1 -4 -1 h 1 1 3 1 v 1 4 c 0,0.55399 -0.446014,1 -1,1 h -3 -1 z"
         style="color:#eff0f1;opacity:0.85;fill:#001621;fill-opacity:1"
         inkscape:connector-curvature="0"
         class="ColorScheme-Background" />
    </g>
    <g
       id="left"
       inkscape:label="#g963"
       style="fill:#000000">
      <rect
         transform="scale(-1,1)"
         style="color:#eff0f1;opacity:0.85;fill:#001621;fill-opacity:1;stroke:none"
         id="rect4144"
         width="5.9999995"
         height="32"
         x="-19.000004"
         y="916.36218"
         class="ColorScheme-Background" />
    </g>
    <g
       id="right"
       inkscape:label="#g944"
       style="fill:#000000">
      <rect
         y="916.36218"
         x="50.999985"
         height="32"
         width="5.9999995"
         id="rect4140"
         style="color:#eff0f1;opacity:0.85;fill:#001621;fill-opacity:1;stroke:none"
         class="ColorScheme-Background" />
    </g>
    <g
       id="center"
       inkscape:label="#g957"
       style="fill:#161616;fill-opacity:0.09019608">
      <rect
         inkscape:label="#rect4401"
         y="916.36218"
         x="19.000004"
         height="32"
         width="32"
         id="centro"
         style="opacity:0.85;fill:#161616;fill-opacity:0.09019608;stroke:none" />
    </g>
    <g
       id="mask-top"
       transform="translate(67)"
       style="opacity:0.9;fill:#001621;fill-opacity:1">
      <rect
         transform="matrix(0,-1,-1,0,0,0)"
         style="opacity:0.97;fill:#001621;fill-opacity:1;stroke:none"
         id="rect4265"
         width="4.9999771"
         height="32.000015"
         x="-915.36218"
         y="-51" />
    </g>
    <g
       id="mask-topleft"
       transform="translate(67)"
       style="opacity:0.9;fill:#001621;fill-opacity:1">
      <path
         style="opacity:0.97;fill:#001621;fill-opacity:1"
         d="m 130,6 c -0.55399,0 -1,0.4460137 -1,1 v 4 h 5 V 6 h -1 z"
         transform="translate(-116,904.36218)"
         id="path4277"
         inkscape:connector-curvature="0" />
    </g>
    <g
       id="mask-topright"
       transform="translate(67)"
       style="opacity:0.9;fill:#001621;fill-opacity:1">
      <path
         style="opacity:0.97;fill:#001621;fill-opacity:1"
         d="m 168,6 v 5 h 5 V 7 c 0,-0.5539863 -0.44601,-1 -1,-1 h -3 z"
         transform="translate(-116,904.36218)"
         id="path4287"
         inkscape:connector-curvature="0" />
    </g>
    <g
       id="mask-bottom"
       transform="translate(67)"
       style="opacity:0.9;fill:#001621;fill-opacity:1">
      <rect
         y="-51"
         x="949.36218"
         height="32.000015"
         width="5.0000229"
         id="rect4291"
         style="opacity:0.97;fill:#001621;fill-opacity:1;stroke:none"
         transform="rotate(90)" />
    </g>
    <g
       id="mask-bottomleft"
       transform="translate(67)"
       style="opacity:0.9;fill:#001621;fill-opacity:1">
      <path
         style="opacity:0.97;fill:#001621;fill-opacity:1"
         d="m 129,45 v 4 c 0,0.55399 0.44601,1 1,1 h 3 1 v -5 z"
         transform="translate(-116,904.36218)"
         id="path4303"
         inkscape:connector-curvature="0" />
    </g>
    <g
       id="mask-bottomright"
       transform="translate(67)"
       style="opacity:0.9;fill:#001621;fill-opacity:1">
      <path
         style="opacity:0.97;fill:#001621;fill-opacity:1"
         d="m 168,45 v 5 h 1 3 c 0.55399,0 1,-0.44601 1,-1 v -4 z"
         transform="translate(-116,904.36218)"
         id="path4313"
         inkscape:connector-curvature="0" />
    </g>
    <g
       id="mask-left"
       transform="translate(67)"
       style="opacity:0.9;fill:#001621;fill-opacity:1">
      <rect
         y="916.36218"
         x="-18"
         height="32.000023"
         width="4.9999962"
         id="rect4317"
         style="opacity:0.97;fill:#001621;fill-opacity:1;stroke:none"
         transform="scale(-1,1)" />
    </g>
    <g
       id="mask-right"
       transform="translate(67)"
       style="opacity:0.9;fill:#001621;fill-opacity:1">
      <rect
         style="opacity:0.97;fill:#001621;fill-opacity:1;stroke:none"
         id="rect4323"
         width="4.9999847"
         height="32.000023"
         x="52"
         y="916.36218" />
    </g>
    <g
       id="mask-center"
       transform="translate(67)"
       style="opacity:0.9;fill:#001621;fill-opacity:1">
      <rect
         style="opacity:1;fill:#001621;fill-opacity:1;stroke:none"
         id="rect4329"
         width="32"
         height="32"
         x="19.000004"
         y="916.36218" />
      <rect
         y="916.36218"
         x="19.000004"
         height="32"
         width="32"
         id="rect4331"
         style="opacity:0.97;fill:#001621;fill-opacity:1;stroke:none" />
    </g>
    <path
       transform="translate(0.18899995,904.42078)"
       id="path879"
       d="M 18.813867,27.912673 V 12.009842 H 34.793154 50.772441 V 27.912673 43.815504 H 34.793154 18.813867 Z"
       style="fill:#1b1b1b;fill-opacity:0.86000001;stroke-width:0.152912" />
    <path
       transform="translate(0.18899995,904.42078)"
       id="path881"
       d="M 18.813867,8.9516055 V 6.0462806 H 34.793154 50.772441 V 8.9516055 11.85693 H 34.793154 18.813867 Z"
       style="fill:#1b1b1b;fill-opacity:0.86;stroke-width:0.152912" />
    <path
       transform="translate(0.18899995,904.42078)"
       id="path883"
       d="M 18.813867,27.912673 V 12.009842 H 34.793154 50.772441 V 27.912673 43.815504 H 34.793154 18.813867 Z"
       style="fill:#1b1b1b;fill-opacity:0.86;stroke-width:0.152912" />
    <path
       transform="translate(0.18899995,904.42078)"
       id="path885"
       d="M 50.925353,27.912673 V 12.009842 h 2.905325 2.905324 v 15.902831 15.902831 h -2.905324 -2.905325 z"
       style="fill:#1b1b1b;fill-opacity:0.86;stroke-width:0.152912" />
    <path
       transform="translate(0.18899995,904.42078)"
       id="path887"
       d="M 50.925353,8.9516055 V 6.0462806 h 2.599501 c 3.437244,0 3.211148,-0.2260958 3.211148,3.2111486 V 11.85693 h -2.905324 -2.905325 z"
       style="fill:#1b1b1b;fill-opacity:0.86;stroke-width:0.152912" />
    <path
       transform="translate(0.18899995,904.42078)"
       id="path889"
       d="m 50.925353,46.960266 v -2.99185 h 2.905325 2.905324 v 2.652258 c 0,3.453243 0.230692,3.21852 -3.226752,3.283145 l -2.583897,0.0483 z"
       style="fill:#1b1b1b;fill-opacity:0.86;stroke-width:0.152912" />
    <path
       transform="translate(0.18899995,904.42078)"
       id="path891"
       d="m 18.813867,46.950197 v -2.981781 h 15.979287 15.979287 v 2.981781 2.981781 H 34.793154 18.813867 Z"
       style="fill:#1b1b1b;fill-opacity:0.86;stroke-width:0.152912" />
    <path
       transform="translate(0.18899995,904.42078)"
       id="path893"
       d="m 13.510177,49.777999 c -0.57945,-0.233466 -0.659872,-0.632788 -0.659872,-3.276485 v -2.533098 h 2.905325 2.905325 v 2.981781 2.981781 l -2.408361,-0.0097 c -1.324599,-0.0053 -2.558687,-0.07026 -2.742417,-0.144286 z"
       style="fill:#1b1b1b;fill-opacity:0.86;stroke-width:0.152912" />
    <path
       transform="translate(0.18899995,904.42078)"
       id="path895"
       d="M 12.850305,27.912673 V 12.009842 h 2.905325 2.905325 V 27.912673 43.815504 H 15.75563 12.850305 Z"
       style="fill:#1b1b1b;fill-opacity:0.86;stroke-width:0.152912" />
    <path
       transform="translate(0.18899995,904.42078)"
       id="path897"
       d="m 12.850305,9.2574292 c 0,-2.3956188 0.02399,-2.6234874 0.305824,-2.9053249 0.281838,-0.2818375 0.509706,-0.3058237 2.905325,-0.3058237 h 2.599501 V 8.9516055 11.85693 H 15.75563 12.850305 Z"
       style="fill:#1b1b1b;fill-opacity:0.86;stroke-width:0.152912" />
    <path
       transform="translate(0.18899995,904.42078)"
       id="path899"
       d="M 85.942163,27.912673 V 12.009842 h 15.902827 15.90284 V 27.912673 43.815504 H 101.84499 85.942163 Z"
       style="fill:#1b1b1b;fill-opacity:0.86;stroke-width:0.152912" />
    <path
       transform="translate(0.18899995,904.42078)"
       id="path901"
       d="M 79.82569,27.912673 V 12.009842 h 2.446589 2.44659 v 15.902831 15.902831 h -2.44659 -2.446589 z"
       style="fill:#1b1b1b;fill-opacity:0.86;stroke-width:0.152912" />
    <path
       transform="translate(0.18899995,904.42078)"
       id="path903"
       d="M 85.942163,8.49287 V 6.0462806 h 15.902827 15.90284 V 8.49287 10.939459 H 101.84499 85.942163 Z"
       style="fill:#1b1b1b;fill-opacity:0.86;stroke-width:0.152912" />
    <path
       transform="translate(0.18899995,904.42078)"
       id="path905"
       d="M 118.81821,27.912673 V 12.009842 h 2.44659 2.44659 v 15.902831 15.902831 h -2.44659 -2.44659 z"
       style="fill:#1b1b1b;fill-opacity:0.86;stroke-width:0.152912" />
    <path
       transform="translate(0.18899995,904.42078)"
       id="path907"
       d="m 118.81821,47.485388 v -2.446589 h 2.44659 2.44659 v 2.129667 c 0,2.118584 -0.002,2.131317 -0.4029,2.44659 -0.36196,0.284716 -0.61059,0.316922 -2.44659,0.316922 h -2.04369 z"
       style="fill:#1b1b1b;fill-opacity:0.86;stroke-width:0.152912" />
    <path
       transform="translate(0.18899995,904.42078)"
       id="path909"
       d="m 85.942163,47.485388 v -2.446589 h 15.902827 15.90284 v 2.446589 2.44659 H 101.84499 85.942163 Z"
       style="fill:#1b1b1b;fill-opacity:0.86;stroke-width:0.152912" />
    <path
       transform="translate(0.18899995,904.42078)"
       id="path911"
       d="M 80.473341,49.773478 C 79.949422,49.562996 79.82569,49.021713 79.82569,46.940242 v -1.901443 h 2.446589 2.44659 v 2.446589 2.44659 l -1.949626,-0.0097 c -1.072295,-0.0053 -2.10545,-0.07229 -2.295902,-0.148807 z"
       style="fill:#1b1b1b;fill-opacity:0.86;stroke-width:0.152912" />
    <path
       transform="translate(0.18899995,904.42078)"
       id="path913"
       d="m 79.82569,8.9415529 c 0,-1.9197106 0.109358,-2.5041509 0.519855,-2.7782469 0.09254,-0.061788 1.11439,-0.1133961 2.270786,-0.1146839 l 2.102538,-0.00234 V 8.49287 10.939459 h -2.44659 -2.446589 z"
       style="fill:#1b1b1b;fill-opacity:0.86;stroke-width:0.152912" />
    <path
       transform="translate(0.18899995,904.42078)"
       id="path915"
       d="M 85.942163,8.49287 V 6.0462806 h 15.902827 15.90284 V 8.49287 10.939459 H 101.84499 85.942163 Z"
       style="fill:#1b1b1b;fill-opacity:0.86;stroke-width:0.152912" />
    <path
       transform="translate(0.18899995,904.42078)"
       id="path917"
       d="M 118.81821,8.49287 V 6.0462806 h 2.19352 c 2.84408,0 2.69966,-0.1458415 2.69966,2.7262255 v 2.1669529 h -2.44659 -2.44659 z"
       style="fill:#1b1b1b;fill-opacity:0.88;stroke-width:0.152912" />
    <path
       transform="translate(0.18899995,904.42078)"
       id="path919"
       d="M 118.81821,27.912673 V 12.009842 h 2.44659 2.44659 v 15.902831 15.902831 h -2.44659 -2.44659 z"
       style="fill:#1b1b1b;fill-opacity:0.88;stroke-width:0.152912" />
    <path
       transform="translate(0.18899995,904.42078)"
       id="path921"
       d="M 85.942163,27.912673 V 12.009842 h 15.902827 15.90284 V 27.912673 43.815504 H 101.84499 85.942163 Z"
       style="fill:#1b1b1b;fill-opacity:0.88;stroke-width:0.152912" />
    <path
       transform="translate(0.18899995,904.42078)"
       id="path923"
       d="M 79.82569,27.912673 V 12.009842 h 2.446589 2.44659 v 15.902831 15.902831 h -2.44659 -2.446589 z"
       style="fill:#1b1b1b;fill-opacity:0.88;stroke-width:0.152912" />
    <path
       transform="translate(0.18899995,904.42078)"
       id="path925"
       d="m 79.87667,8.8719461 c 0.05203,-1.1371322 0.161845,-2.1931602 0.244032,-2.3467288 0.121226,-0.2265122 0.41498,-0.2980647 1.556275,-0.3790761 0.773764,-0.054923 1.774729,-0.099861 2.224368,-0.099861 h 0.817524 V 8.49287 10.939459 h -2.4684 -2.468399 z"
       style="fill:#1b1b1b;fill-opacity:0.88;stroke-width:0.152912" />
    <path
       transform="translate(0.18899995,904.42078)"
       id="path927"
       d="M 85.942163,8.49287 V 6.0462806 h 15.902827 15.90284 V 8.49287 10.939459 H 101.84499 85.942163 Z"
       style="fill:#1b1b1b;fill-opacity:0.88;stroke-width:0.152912" />
    <path
       transform="translate(0.18899995,904.42078)"
       id="path929"
       d="M 118.81821,8.4755173 V 6.0115752 l 2.13845,0.058727 c 1.77829,0.048836 2.18338,0.1036564 2.40521,0.3254908 0.22184,0.2218343 0.27666,0.6269276 0.32549,2.4052147 l 0.0587,2.1384513 h -2.46394 -2.46394 z"
       style="fill:#1b1b1b;fill-opacity:0.88;stroke-width:0.152912" />
    <path
       transform="translate(0.18899995,904.42078)"
       id="path931"
       d="m 118.81821,47.507073 v -2.468274 h 2.4643 2.4643 l -0.0603,2.06445 c -0.0808,2.763398 -0.004,2.686484 -2.78877,2.792748 l -2.0795,0.07935 z"
       style="fill:#1b1b1b;fill-opacity:0.88;stroke-width:0.152912" />
    <path
       transform="translate(0.18899995,904.42078)"
       id="path933"
       d="m 85.942163,47.485388 v -2.446589 h 15.902827 15.90284 v 2.446589 2.44659 H 101.84499 85.942163 Z"
       style="fill:#1b1b1b;fill-opacity:0.88;stroke-width:0.152912" />
    <path
       transform="translate(0.18899995,904.42078)"
       id="path935"
       d="m 81.545072,49.818422 c -1.47592,-0.07022 -1.523168,-0.148699 -1.658689,-2.754963 l -0.105279,-2.02466 h 2.468882 2.468883 v 2.446589 2.44659 l -1.032155,-0.03038 c -0.567686,-0.01671 -1.531424,-0.05414 -2.141642,-0.08317 z"
       style="fill:#1b1b1b;fill-opacity:0.88;stroke-width:0.152912" />
    <path
       transform="translate(0.18899995,904.42078)"
       id="path955"
       d="M 50.925353,27.912673 V 12.009842 h 2.905325 2.905324 v 15.902831 15.902831 h -2.905324 -2.905325 z"
       style="fill:#1b1b1b;fill-opacity:0.88;stroke-width:0.152912" />
    <path
       transform="translate(0.18899995,904.42078)"
       id="path957"
       d="M 18.813867,27.912673 V 12.009842 H 34.793154 50.772441 V 27.912673 43.815504 H 34.793154 18.813867 Z"
       style="fill:#1b1b1b;fill-opacity:0.86000001;stroke-width:0.152912" />
    <path
       transform="translate(0.18899995,904.42078)"
       id="path959"
       d="M 18.813867,27.912673 V 12.009842 H 34.793154 50.772441 V 27.912673 43.815504 H 34.793154 18.813867 Z"
       style="fill:#1b1b1b;fill-opacity:0.86;stroke-width:0.152912" />
    <path
       transform="translate(0.18899995,904.42078)"
       id="path961"
       d="M 50.925353,27.912673 V 12.009842 h 2.905325 2.905324 v 15.902831 15.902831 h -2.905324 -2.905325 z"
       style="fill:#1b1b1b;fill-opacity:0.86;stroke-width:0.152912" />
    <path
       transform="translate(0.18899995,904.42078)"
       id="path963"
       d="M 12.850305,27.912673 V 12.009842 h 2.905325 2.905325 V 27.912673 43.815504 H 15.75563 12.850305 Z"
       style="fill:#1b1b1b;fill-opacity:0.86;stroke-width:0.152912" />
    <path
       transform="translate(0.18899995,904.42078)"
       id="path965"
       d="m 12.883363,9.2469151 c 0.06065,-2.1009371 0.122376,-2.6570426 0.316455,-2.8511217 0.194079,-0.1940791 0.750185,-0.255803 2.851122,-0.3164551 l 2.610015,-0.075349 V 8.9304601 11.85693 h -2.92647 -2.926471 z"
       style="fill:#1b1b1b;fill-opacity:0.86;stroke-width:0.152912" />
    <path
       transform="translate(0.18899995,904.42078)"
       id="path967"
       d="M 18.813867,8.9516055 V 6.0462806 H 34.793154 50.772441 V 8.9516055 11.85693 H 34.793154 18.813867 Z"
       style="fill:#1b1b1b;fill-opacity:0.86;stroke-width:0.152912" />
    <path
       transform="translate(0.18899995,904.42078)"
       id="path969"
       d="m 50.925353,8.9358905 v -2.92104 l 2.484817,0.065771 c 1.36665,0.036174 2.599915,0.1173762 2.74059,0.1804498 0.418167,0.1874911 0.474924,0.5086961 0.549726,3.1110423 l 0.07142,2.4848164 H 53.848628 50.92535 Z"
       style="fill:#1b1b1b;fill-opacity:0.86;stroke-width:0.152912" />
    <path
       transform="translate(0.18899995,904.42078)"
       id="path971"
       d="m 50.925353,46.954888 v -2.986472 h 2.905325 2.905324 l -0.0013,1.87317 c -0.0019,2.608986 -0.1201,3.45354 -0.518273,3.701598 -0.210081,0.130879 -1.182108,0.234518 -2.80623,0.299207 l -2.484817,0.09897 z"
       style="fill:#1b1b1b;fill-opacity:0.86;stroke-width:0.152912" />
    <path
       transform="translate(0.18899995,904.42078)"
       id="path973"
       d="m 18.813867,46.950197 v -2.981781 h 15.979287 15.979287 v 2.981781 2.981781 H 34.793154 18.813867 Z"
       style="fill:#1b1b1b;fill-opacity:0.86;stroke-width:0.152912" />
    <path
       transform="translate(0.18899995,904.42078)"
       id="path975"
       d="m 14.799552,49.818119 c -1.793578,-0.06831 -1.76747,-0.02289 -1.896703,-3.299663 l -0.100571,-2.55004 h 2.929339 2.929338 v 2.981781 2.981781 l -1.261523,-0.03144 c -0.693837,-0.01729 -1.863783,-0.05438 -2.59988,-0.08241 z"
       style="fill:#1b1b1b;fill-opacity:0.86;stroke-width:0.152912" />
  </g>
</svg>
